<?xml version="1.0" encoding="utf-8"?>
<!-- Generator: Adobe Illustrator 16.0.0, SVG Export Plug-In . SVG Version: 6.00 Build 0)  -->
<!DOCTYPE svg PUBLIC "-//W3C//DTD SVG 1.1//EN" "http://www.w3.org/Graphics/SVG/1.1/DTD/svg11.dtd">
<svg version="1.1" id="Layer_1" xmlns="http://www.w3.org/2000/svg" xmlns:xlink="http://www.w3.org/1999/xlink" x="0px" y="0px"
	 width="113.3px" height="159.5px" viewBox="0 0 113.3 159.5" style="enable-background:new 0 0 113.3 159.5;" xml:space="preserve"
	>
<style type="text/css">
<![CDATA[
	.st0{fill:#8CC96F;}
]]>
</style>
<g>
	<path class="st0" d="M39.8,0c0.7,0,1.4,0,2.2,0.1C54.1,1,60,8,59.9,21.2c-0.1,14.2-6.3,29.9-18.6,47.1C33.2,79.6,24.7,88.8,15.8,96
		c0.5,4.5,1.2,8.6,2,12.5c4.7,23.8,13.5,35.7,26.3,35.8c4.9,0,9.7-1.3,14.1-4.2c8.1-5.2,14.7-14.2,19.6-27c-3.4-0.5-6.5-1.6-9.3-3.1
		c-7.3-4.1-10.9-10.7-10.9-19.8c0-4.6,1.7-8.6,5.1-12c3.8-3.8,8.2-5.7,13.3-5.6c5,0,9.3,1.5,12.9,4.3c4.8,3.9,7.2,9.3,7.1,16.1
		c-0.1,2.8-0.1,4.2-0.1,4.3c1.2-0.5,2.7-1.3,4.4-2.4c2.7-1.7,5-2.6,6.8-2.5c1,0,1.9,0.3,2.9,0.9c2.3,1.3,3.4,3.3,3.4,6
		c0,1.6-0.6,3.1-1.8,4.6c-3.2,3.9-9.5,6.8-18.7,8.7c-3.2,11.3-8.3,21.1-15.1,29.5c-9.6,11.8-20.4,17.7-32.5,17.6
		c-17.2-0.2-29.7-11.1-37.5-32.5C2.4,112-0.2,94.3,0,73.8c0-1.2,0.1-2.7,0.2-4.5c1.1-14.6,4-28,8.6-40.1C16.3,9.6,26.6-0.1,39.8,0z
		 M16.8,60.6c-0.8,5.6-1.4,11-1.6,16.2c4.4-4.3,8.9-9.6,13.5-15.7c11.3-15.2,16.9-28.2,17-38.9c0-0.6-0.1-1.2-0.4-2
		c-1.1-3.1-2.9-4.6-5.4-4.6c-5.7,0-10.5,3.7-14.4,11.1C22,33.7,19.1,44.9,16.8,60.6z M77.3,87.1c-0.7,0-1.4,0.1-2.2,0.4
		c-2.2,0.8-3.4,2.3-3.4,4.6c0,4,3.3,6.3,9.9,7c0-0.5,0-1.2,0.1-2.2c0.2-1.5,0.2-2.5,0.2-3.1c0-0.3,0-0.7-0.1-1.1
		C81.6,89,80.1,87.2,77.3,87.1z"/>
</g>
</svg>
